<svg xmlns="http://www.w3.org/2000/svg" xmlns:xlink="http://www.w3.org/1999/xlink" aria-hidden="true" role="img" class="iconify iconify--ph" width="32" height="32" preserveAspectRatio="xMidYMid meet" viewBox="0 0 256 256"><path fill="currentColor" d="M88.7 103.3A15.9 15.9 0 0 1 84 92a16 16 0 0 1 32 0a16 16 0 0 1-16 16a15.9 15.9 0 0 1-11.3-4.7ZM228 48v160a20.1 20.1 0 0 1-20 20H48a20.1 20.1 0 0 1-20-20V48a20.1 20.1 0 0 1 20-20h160a20.1 20.1 0 0 1 20 20Zm-24 117l-36-36l-41.9 41.8a19.9 19.9 0 0 1-28.2 0L80 153l-28 28v23h152Zm0-113H52v95l13.9-13.8a19.9 19.9 0 0 1 28.2 0L112 151l41.9-41.8a19.9 19.9 0 0 1 28.2 0L204 131Z"></path></svg>